<?xml version="1.0" standalone="no"?>
<!DOCTYPE svg PUBLIC "-//W3C//DTD SVG 20010904//EN"
 "http://www.w3.org/TR/2001/REC-SVG-20010904/DTD/svg10.dtd">
<svg version="1.0" xmlns="http://www.w3.org/2000/svg"
 width="260.000000pt" height="260.000000pt" viewBox="0 0 260.000000 260.000000"
 preserveAspectRatio="xMidYMid meet">
<metadata>
Created by potrace 1.11, written by Peter Selinger 2001-2013
</metadata>
<g transform="translate(0.000000,260.000000) scale(0.100000,-0.100000)"
fill="#000000" stroke="none">
<path d="M0 1300 l0 -1300 1300 0 1300 0 0 1300 0 1300 -1300 0 -1300 0 0
-1300z m906 489 c66 -25 131 -84 160 -147 10 -23 21 -42 24 -42 3 0 19 21 35
46 75 113 203 174 341 161 144 -14 228 -84 277 -232 18 -54 21 -95 25 -427 l4
-368 -85 0 -86 0 -3 363 c-3 323 -5 366 -21 402 -22 48 -52 81 -92 103 -39 20
-148 20 -196 0 -53 -23 -114 -81 -141 -136 -23 -46 -23 -53 -26 -389 l-3 -343
-84 0 -84 0 -3 363 c-3 322 -5 366 -21 402 -38 84 -91 118 -187 118 -118 1
-210 -64 -252 -178 -20 -56 -22 -82 -26 -382 l-4 -323 -79 0 -79 0 0 500 0
500 80 0 79 0 3 -76 3 -75 37 50 c85 114 264 162 404 110z m1404 -894 l0 -115
-95 0 -95 0 0 115 0 115 95 0 95 0 0 -115z"/>
</g>
</svg>
